<?xml version="1.0" standalone="no"?>
<!DOCTYPE svg PUBLIC "-//W3C//DTD SVG 20010904//EN"
 "http://www.w3.org/TR/2001/REC-SVG-20010904/DTD/svg10.dtd">
<svg version="1.0" xmlns="http://www.w3.org/2000/svg"
 width="701.000000pt" height="701.000000pt" viewBox="0 0 701.000000 701.000000"
 preserveAspectRatio="xMidYMid meet">
<metadata>
Created by potrace 1.11, written by Peter Selinger 2001-2013
</metadata>
<g transform="translate(0.000000,701.000000) scale(0.100000,-0.100000)"
fill="#000000" stroke="none">
<path d="M70 3510 l0 -1500 1745 0 1745 0 0 250 0 250 -245 0 -245 0 0 1000 0
1000 245 0 245 0 0 250 0 250 -1745 0 -1745 0 0 -1500z"/>
<path d="M3800 4635 l0 -375 -240 0 -240 0 0 -750 0 -750 240 0 240 0 0 -375
0 -375 1550 0 1550 0 0 1500 0 1500 -1550 0 -1550 0 0 -375z"/>
</g>
</svg>
